<svg width="24" height="24" viewBox="0 0 24 24" fill="none" xmlns="http://www.w3.org/2000/svg">
<path fill-rule="evenodd" clip-rule="evenodd" d="M1.59268 10.4533C7.81178 7.68218 11.9588 5.85527 14.0338 4.9726C19.9583 2.4524 21.1894 2.01461 21.9917 2.00015C22.1682 1.99697 22.5628 2.0417 22.8184 2.25382C23.0342 2.43292 23.0936 2.67487 23.122 2.84468C23.1504 3.01449 23.1858 3.40133 23.1577 3.70359C22.8367 7.15356 21.4475 15.5257 20.7407 19.3897C20.4417 21.0247 19.8529 21.573 19.2828 21.6266C18.0439 21.7432 17.1032 20.7893 15.9033 19.9848C14.0257 18.7261 12.965 17.9425 11.1424 16.7142C9.03614 15.2946 10.4015 14.5144 11.6019 13.2393C11.916 12.9056 17.3745 7.82791 17.4802 7.36728C17.4934 7.30967 17.5056 7.09493 17.3809 6.98154C17.2562 6.86815 17.0721 6.90692 16.9392 6.93776C16.7509 6.98147 13.7514 9.00909 7.94068 13.0206C7.08928 13.6185 6.3181 13.9099 5.62716 13.8946C4.86545 13.8778 3.40022 13.4541 2.31098 13.092C0.974979 12.6479 -0.0868487 12.413 0.00561267 11.6587C0.0537722 11.2658 0.582794 10.864 1.59268 10.4533Z" fill="#050505"/>
</svg>
