<svg width="24" height="24" viewBox="0 0 24 24" fill="none" xmlns="http://www.w3.org/2000/svg">
<path fill-rule="evenodd" clip-rule="evenodd" d="M16.1149 7.72989C15.0615 6.69593 13.6559 6.13266 12.2015 6.15581C9.54006 6.15581 7.27973 8.00379 6.4738 10.4922C6.04648 11.7962 6.04648 13.2083 6.4738 14.5123H6.47754C7.28721 16.9969 9.54379 18.8449 12.2052 18.8449C13.579 18.8449 14.7585 18.4832 15.6726 17.8444V17.8418C16.7484 17.1088 17.4831 15.9553 17.7117 14.6512H12.2015V10.608H21.8238C21.9438 11.3102 22 12.0278 22 12.7415C22 15.935 20.8911 18.635 18.9617 20.4637L18.9637 20.4653C17.2731 22.0702 14.9528 23 12.2015 23C8.34428 23 4.81697 20.7623 3.08517 17.2168C1.63827 14.25 1.63828 10.7546 3.08518 7.78778C4.81698 4.23839 8.34428 2.00071 12.2015 2.00071C14.7354 1.96984 17.1832 2.94978 19.0274 4.7322L16.1149 7.72989Z" fill="#C4C4C4"/>
</svg>
