<svg width="24" height="24" fill="none" xmlns="http://www.w3.org/2000/svg"><path fill-rule="evenodd" clip-rule="evenodd" d="M16.115 7.73a5.459 5.459 0 00-3.913-1.574c-2.662 0-4.922 1.848-5.728 4.336a6.464 6.464 0 000 4.02h.004c.81 2.485 3.066 4.333 5.727 4.333 1.374 0 2.553-.362 3.468-1v-.003a4.87 4.87 0 002.039-3.19h-5.51v-4.044h9.622c.12.702.176 1.42.176 2.133 0 3.194-1.109 5.894-3.038 7.723l.002.001C17.274 22.07 14.953 23 12.202 23c-3.858 0-7.385-2.238-9.117-5.783a10.784 10.784 0 010-9.43c1.732-3.549 5.26-5.786 9.117-5.786a9.652 9.652 0 016.825 2.731L16.115 7.73z" fill="#C4C4C4"/></svg>