<svg width="24" height="24" fill="none" xmlns="http://www.w3.org/2000/svg"><path d="M20.458 4.591a5.255 5.255 0 00-1.708-1.177 5.122 5.122 0 00-4.028 0 5.255 5.255 0 00-1.708 1.177L12 5.638 10.986 4.59A5.182 5.182 0 007.264 3a5.183 5.183 0 00-3.722 1.59A5.52 5.52 0 002 8.431a5.52 5.52 0 001.542 3.841l1.014 1.047L12 21l7.444-7.681 1.014-1.047a5.446 5.446 0 001.141-1.761 5.581 5.581 0 000-4.158 5.445 5.445 0 00-1.141-1.762v0z" stroke="#fff" stroke-width="3.5" stroke-linecap="round" stroke-linejoin="round"/><path d="M20.458 4.591a5.255 5.255 0 00-1.708-1.177 5.122 5.122 0 00-4.028 0 5.255 5.255 0 00-1.708 1.177L12 5.638 10.986 4.59A5.182 5.182 0 007.264 3a5.183 5.183 0 00-3.722 1.59A5.52 5.52 0 002 8.431a5.52 5.52 0 001.542 3.841l1.014 1.047L12 21l7.444-7.681 1.014-1.047a5.446 5.446 0 001.141-1.761 5.581 5.581 0 000-4.158 5.445 5.445 0 00-1.141-1.762v0z" stroke="#ECAA02" stroke-linecap="round" stroke-linejoin="round"/></svg>