<svg width="24" height="24" fill="none" xmlns="http://www.w3.org/2000/svg"><path fill-rule="evenodd" clip-rule="evenodd" d="M1.593 10.453c6.219-2.77 10.366-4.598 12.44-5.48 5.926-2.52 7.157-2.958 7.96-2.973.176-.003.57.042.826.254.216.179.276.42.304.59.028.17.064.557.036.86-.321 3.45-1.71 11.822-2.417 15.686-.3 1.635-.888 2.183-1.458 2.237-1.24.116-2.18-.838-3.38-1.642-1.877-1.259-2.938-2.043-4.76-3.27-2.107-1.42-.742-2.2.459-3.476.314-.333 5.773-5.411 5.878-5.872.013-.057.026-.272-.1-.385-.124-.114-.308-.075-.44-.044-.19.043-3.189 2.071-9 6.083-.85.597-1.622.889-2.313.874-.762-.017-2.227-.44-3.316-.803-1.336-.444-2.398-.679-2.305-1.433.048-.393.577-.795 1.587-1.206z" fill="#050505"/></svg>